<svg width="81" height="130" viewBox="0 0 81 130" fill="none" xmlns="http://www.w3.org/2000/svg">
<g filter="url(#filter0_d_3_43)">
<path d="M35.0456 1.67076C35.95 1.26883 36.4906 1.1391 37.5075 1.0584C38.5712 1.11385 39.093 1.27876 39.9693 1.67076C40.9803 2.23512 41.3384 2.60552 41.9036 3.28517C42.4927 4.04006 42.6364 4.48744 42.6997 5.31054C42.818 6.59125 42.8633 7.30931 42.6997 8.59003C42.6997 8.59003 42.9681 8.20981 43.3151 8.33027C43.662 8.45073 43.662 8.85209 43.662 8.85209C43.6599 10.4194 43.548 11.1833 42.9 12.0809C42.7094 12.3166 42.4889 12.1075 42.4302 11.9384C42.4288 12.1823 42.4265 12.6994 42.4311 13.0273C42.2107 15.5348 42.1739 16.5526 42.4311 16.9241C43.1093 17.4692 43.5937 18.2277 47.3548 20.0416C52.1049 21.5298 53.5883 23.0342 54.8575 26.4992C55.0794 29.8148 55.3923 31.4591 54.3299 33.7919L54.8575 39.1918C55.0103 40.0522 55.2351 40.4885 55.4398 40.9176C57.3481 45.2292 57.4258 47.6109 56.7294 51.8288C57.152 55.1594 57.6909 56.4819 57.4952 57.7297C57.8374 58.6622 57.9649 59.1093 58.1399 59.8451C58.4132 62.0062 58.6007 63.2146 59.0778 65.3564C59.3555 65.685 59.2065 66.6175 58.7261 68.8079C58.3984 70.4135 58.2669 71.2695 58.1399 72.7047C57.8192 73.032 57.6238 73.1411 57.1435 72.7047C56.8496 72.3555 56.7687 71.8879 56.7332 70.7006C56.1666 71.476 55.7716 71.9142 54.8575 72.7047C54.3638 72.8237 54.1997 72.6905 54.3299 71.7027C53.8075 71.838 53.6436 71.7523 53.8024 71.0346L54.3299 69.8656C53.965 69.957 53.7694 69.9907 53.8024 69.3089C54.0546 68.8196 54.2621 68.5678 54.8575 68.1955C55.2032 67.0218 55.3732 66.2761 55.5609 64.5213C55.2636 64.5366 55.1093 64.6319 54.8575 64.9667C54.6472 66.5017 54.5376 67.0871 54.3554 68.0597L54.3299 68.1955C53.9854 68.8033 53.7347 68.9883 53.099 68.8079C52.7051 68.8016 52.675 68.9278 52.4859 68.1955C53.2479 66.2976 53.099 63.1531 53.099 63.1531C53.099 63.1531 53.1056 62.0656 53.3921 61.3482C54.2542 59.693 54.543 58.9879 54.3299 58.5647C53.0814 56.8413 52.3798 55.8651 51.0475 53.6102C49.6687 51.4455 48.8713 50.2359 48.6443 47.8762C48.5207 46.2178 48.5116 45.185 48.6443 43.0887C48.0206 44.294 47.7624 45.0127 47.7065 46.4845C47.7195 48.1585 47.5243 48.7171 47.7065 50.771C47.8886 52.825 48.0075 53.4316 48.6443 55.1132C49.5442 58.5307 49.8799 60.3961 50.1683 63.6306C50.4843 67.1741 50.5177 69.0817 50.1683 72.2594C49.7263 75.3829 49.4324 77.1302 47.9409 80.1644C47.3784 81.3129 47.1945 82.0416 47.1203 83.5046C46.9373 84.4972 46.8105 85.2768 46.4169 86.3994C46.0302 87.4625 45.5619 87.9272 45.0688 88.6818C45.6327 91.4894 45.6298 93.0304 45.3619 95.7518C44.76 99.2988 44.2355 101.27 43.1345 104.77C42.5413 107.324 42.3879 108.811 42.4841 111.577C43.1689 112.559 43.6273 113.051 44.4826 113.9C46.6203 116.03 46.6696 115.981 47.1789 116.349C48.4212 116.711 49.2635 117.311 50.8717 118.743C51.3334 119.724 51.0033 120.081 49.9924 120.58C49.2114 121.184 48.4861 121.23 46.4755 120.58C45.8582 120.675 45.4689 120.656 44.4826 120.135C43.4932 118.565 42.2353 117.942 41.7368 117.801C40.9335 117.817 41.1443 117.526 40.2624 117.518C38.7627 117.464 37.9353 117.278 36.511 116.349C35.7362 115.368 35.4224 114.788 36.1007 113.455C37.0197 112.196 37.4821 111.385 37.9764 109.279C38.0604 104.881 38.0194 102.399 37.6833 97.9229C36.9522 96.6868 36.815 95.8907 36.8627 94.3601L36.8756 94.282C37.3095 91.6479 37.5567 90.1471 39.0901 86.789C38.7568 85.4359 38.6872 84.7195 38.7384 83.5046C39.1007 79.813 39.1845 77.6775 38.7384 73.5398C38.4133 70.6221 38.2359 68.9725 38.1522 65.3564C37.1397 68.9792 36.365 70.9949 34.3422 74.5418C32.8662 77.18 32.3788 79.02 31.6459 82.4468C31.5148 84.154 31.2593 85.013 30.5323 86.3994C29.6575 88.0206 29.0876 88.7628 28.0118 89.9622C27.5059 90.8065 27.2859 91.9126 27.0154 95.0281C26.9333 96.2931 25.9923 98.4647 23.0296 104.436C22.5896 105.718 22.4546 106.456 22.5606 107.832C22.6653 109.377 22.5372 110.242 22.1503 111.785C22.0473 113.828 22.059 114.974 22.1503 117.017C23.0209 118.718 23.4199 119.644 21.74 120.58C17.4479 121.654 15.6751 121.72 14.5304 120.135C13.9969 118.72 13.8492 117.983 14.5304 117.017C15.5147 115.169 16.0478 114.253 17.4611 109.669C17.1627 108.824 17.1102 108.324 17.4611 107.331C18.2674 105.395 18.8234 104.62 18.9851 100.762C18.9084 96.7326 18.7175 93.9939 19.3954 92.4116C20.1371 90.3171 20.7879 89.2066 22.3848 87.3457C22.7842 84.7966 22.9922 83.3404 23.9088 81.6675C23.7369 79.1933 23.7186 77.7746 23.9088 75.1542C23.9905 71.5773 24.3073 69.6114 25.0811 66.1357C25.7506 63.1812 26.2005 61.5242 27.6601 58.5647C27.7591 55.7826 27.9543 54.1998 28.598 51.3277C28.5724 49.5665 28.7139 48.2329 29.0083 45.7608C28.6917 45.0349 28.5122 44.5267 28.1877 43.367C26.8558 41.7678 26.2308 40.687 25.1983 38.6351C25.1983 38.6351 23.9099 42.0359 23.1468 43.367C22.3836 44.6981 22.2074 45.408 22.1503 46.4845C21.3995 48.7884 20.8053 49.9558 19.454 51.8288C17.7239 54.8367 16.3274 57.6247 16.875 58.2307C17.0844 58.8925 17.2934 59.453 17.6956 60.5132C18.04 61.9915 18.0827 62.8203 17.6956 64.2987C17.8502 65.1938 17.7736 65.508 17.6956 66.1357C17.0352 68.2338 16.7535 68.8896 16.4647 68.8079C15.8832 68.9696 15.5772 69.0048 15.4682 67.8615C15.3435 67.2161 15.3365 66.8474 15.8199 66.1357L15.4682 64.8554C14.789 66.063 14.5625 66.853 14.2959 68.3625C14.4121 71.2625 14.3945 71.7531 14.2959 71.7027C14.0762 72.2936 13.8632 72.3902 13.4169 72.2015C13.4519 72.5108 13.2433 72.14 12.7719 71.146C12.5915 71.8411 12.3879 71.9303 11.8927 71.7027C11.9499 71.9557 10.4978 69.7919 10.1929 68.3625C9.888 66.9332 9.9688 66.6865 9.89981 65.5234C9.83082 64.3603 9.56415 63.1657 10.1929 62.3502C11.0074 60.5214 11.4155 59.4408 11.8927 57.2287C11.7387 56.8591 11.6679 56.6519 11.8927 56.2823C12.0589 56.134 12.2472 55.9421 12.7719 54.8906L13.7684 48.4886C14.0602 46.6741 14.2582 45.6698 15.4682 44.2021C15.3471 43.3452 15.4755 42.723 15.8199 41.5299V39.3032C15.7762 38.7098 16.317 36.965 16.317 36.965C16.317 36.965 16.2594 35.9356 16.317 34.5243C16.3849 33.9726 16.4447 32.804 17.7279 30.9528C17.8151 28.6262 18.1369 27.9737 18.0968 27.2229C18.441 25.6645 18.2147 25.3391 19.3486 23.8422C20.4824 22.3453 21.0878 22.0894 22.5364 21.2742C23.7111 20.75 23.2883 20.4769 26.5222 19.6598C27.5619 19.4095 28.008 19.0765 28.9701 18.5934C30.454 17.9568 31.0194 17.1659 32.5838 16.2561C33.1081 15.8719 33.0311 14.7748 32.5838 12.0809C32.3778 12.2189 32.2622 12.2368 32.0563 12.0809C32.0016 12.0256 31.9169 12.0332 31.5287 11.1902C31.1965 10.5209 31.0918 10.4133 31.0598 9.90981C31.0598 9.90981 31.0598 8.85209 31.5287 8.85209H32.0563C31.9435 7.86726 31.9202 7.20149 32.0563 5.51194C32.2286 4.63712 32.4981 4.1501 33.1699 3.28517C33.6453 2.61988 34.0565 2.26648 35.0456 1.67076Z" fill="#FEFEFF"/>
<path d="M12.7719 71.146C12.5915 71.8411 12.3879 71.9303 11.8927 71.7027C11.9499 71.9557 10.4978 69.7919 10.1929 68.3625C9.888 66.9332 9.9688 66.6865 9.89981 65.5234C9.83082 64.3603 9.56415 63.1657 10.1929 62.3502C11.0074 60.5214 11.4155 59.4408 11.8927 57.2287C11.7387 56.8591 11.6679 56.6519 11.8927 56.2823C12.0589 56.134 12.2472 55.9421 12.7719 54.8906L13.7684 48.4886C14.0602 46.6741 14.2582 45.6698 15.4682 44.2021C15.3471 43.3452 15.4755 42.723 15.8199 41.5299V39.3032C15.7762 38.7098 16.317 36.965 16.317 36.965C16.317 36.965 16.2594 35.9356 16.317 34.5243C16.3849 33.9726 16.4447 32.804 17.7279 30.9528C17.8151 28.6262 18.1369 27.9737 18.0968 27.2229C18.441 25.6645 18.2147 25.3391 19.3486 23.8422C20.4824 22.3453 21.0878 22.0894 22.5364 21.2742C23.7111 20.75 23.2883 20.4769 26.5222 19.6598C27.5619 19.4095 28.008 19.0765 28.9701 18.5934C30.454 17.9568 31.0194 17.1659 32.5838 16.2561C33.1081 15.8719 33.0311 14.7748 32.5838 12.0809C32.3778 12.2189 32.2622 12.2368 32.0563 12.0809C32.0016 12.0256 31.9169 12.0332 31.5287 11.1902C31.1965 10.5209 31.0918 10.4133 31.0598 9.90981C31.0598 9.90981 31.0598 8.85209 31.5287 8.85209C31.9976 8.85209 32.0563 8.85209 32.0563 8.85209C31.9435 7.86726 31.9202 7.20149 32.0563 5.51194C32.2286 4.63712 32.4981 4.1501 33.1699 3.28517C33.6453 2.61988 34.0565 2.26648 35.0456 1.67076C35.95 1.26883 36.4906 1.1391 37.5075 1.0584C38.5712 1.11385 39.093 1.27876 39.9693 1.67076C40.9803 2.23512 41.3384 2.60552 41.9036 3.28517C42.4927 4.04006 42.6364 4.48744 42.6997 5.31054C42.818 6.59125 42.8633 7.30931 42.6997 8.59003C42.6997 8.59003 42.9681 8.20981 43.3151 8.33027C43.662 8.45073 43.662 8.85209 43.662 8.85209C43.6599 10.4194 43.548 11.1833 42.9 12.0809C42.6472 12.3935 42.3419 11.9238 42.4311 11.8026C42.4311 11.8026 42.4249 12.5861 42.4311 13.0273C42.2107 15.5348 42.1739 16.5526 42.4311 16.9241C43.1093 17.4692 43.5937 18.2277 47.3548 20.0416C52.1049 21.5298 53.5883 23.0342 54.8575 26.4992C55.0794 29.8148 55.3923 31.4591 54.3299 33.7919C54.536 35.9007 54.6515 37.083 54.8575 39.1918C55.0103 40.0522 55.2351 40.4885 55.4398 40.9176C57.3481 45.2292 57.4258 47.6109 56.7294 51.8288C57.152 55.1594 57.6909 56.4819 57.4952 57.7297C57.8374 58.6622 57.9649 59.1093 58.1399 59.8451C58.4132 62.0062 58.6007 63.2146 59.0778 65.3564C59.3555 65.685 59.2065 66.6175 58.7261 68.8079C58.3984 70.4135 58.2669 71.2695 58.1399 72.7047C57.8192 73.032 57.6238 73.1411 57.1435 72.7047C56.8496 72.3555 56.7687 71.8879 56.7332 70.7006C56.1666 71.476 55.7716 71.9142 54.8575 72.7047C54.3638 72.8237 54.1997 72.6905 54.3299 71.7027C53.8075 71.838 53.6436 71.7523 53.8024 71.0346L54.3299 69.8656C53.965 69.957 53.7694 69.9907 53.8024 69.3089C54.0546 68.8196 54.2621 68.5678 54.8575 68.1955C55.2032 67.0218 55.3732 66.2761 55.5609 64.5213C55.2636 64.5366 55.1093 64.6319 54.8575 64.9667C54.6376 66.5718 54.5278 67.1386 54.3299 68.1955C53.9854 68.8033 53.7347 68.9883 53.099 68.8079C52.7051 68.8016 52.675 68.9278 52.4859 68.1955C53.2479 66.2976 53.099 63.1531 53.099 63.1531C53.099 63.1531 53.1056 62.0656 53.3921 61.3482C54.2542 59.693 54.543 58.9879 54.3299 58.5647C53.0814 56.8413 52.3798 55.8651 51.0475 53.6102C49.6687 51.4455 48.8713 50.2359 48.6443 47.8762C48.5207 46.2178 48.5116 45.185 48.6443 43.0887C48.0206 44.294 47.7624 45.0127 47.7065 46.4845C47.7195 48.1585 47.5243 48.7171 47.7065 50.771C47.8886 52.825 48.0075 53.4316 48.6443 55.1132C49.5442 58.5307 49.8799 60.3961 50.1683 63.6306C50.4843 67.1741 50.5177 69.0817 50.1683 72.2594C49.7263 75.3829 49.4324 77.1302 47.9409 80.1644C47.3784 81.3129 47.1945 82.0416 47.1203 83.5046C46.9373 84.4972 46.8105 85.2768 46.4169 86.3994C46.0302 87.4625 45.5619 87.9272 45.0688 88.6818C45.6327 91.4894 45.6298 93.0304 45.3619 95.7518C44.76 99.2988 44.2355 101.27 43.1345 104.77C42.5413 107.324 42.3879 108.811 42.4841 111.577C43.1689 112.559 43.6273 113.051 44.4826 113.9C46.6203 116.03 46.6696 115.981 47.1789 116.349C48.4212 116.711 49.2635 117.311 50.8717 118.743C51.3334 119.724 51.0033 120.081 49.9924 120.58C49.2114 121.184 48.4861 121.23 46.4755 120.58C45.8582 120.675 45.4689 120.656 44.4826 120.135C43.4932 118.565 42.2353 117.942 41.7368 117.801C40.9335 117.817 41.1443 117.526 40.2624 117.518C38.7627 117.464 37.9353 117.278 36.511 116.349C35.7362 115.368 35.4224 114.788 36.1007 113.455C37.0197 112.196 37.4821 111.385 37.9764 109.279C38.0604 104.881 38.0194 102.399 37.6833 97.9229C36.9522 96.6868 36.815 95.8907 36.8627 94.3601C37.3047 91.6772 37.5416 90.1801 39.0901 86.789C38.7568 85.4359 38.6872 84.7195 38.7384 83.5046C39.1007 79.813 39.1845 77.6775 38.7384 73.5398C38.4133 70.6221 38.2359 68.9725 38.1522 65.3564C37.1397 68.9792 36.365 70.9949 34.3422 74.5418C32.8662 77.18 32.3788 79.02 31.6459 82.4468C31.5148 84.154 31.2593 85.013 30.5323 86.3994C29.6575 88.0206 29.0876 88.7628 28.0118 89.9622C27.5059 90.8065 27.2859 91.9126 27.0154 95.0281C26.9333 96.2931 25.9923 98.4647 23.0296 104.436C22.5896 105.718 22.4546 106.456 22.5606 107.832C22.6653 109.377 22.5372 110.242 22.1503 111.785C22.0473 113.828 22.059 114.974 22.1503 117.017C23.0209 118.718 23.4199 119.644 21.74 120.58C17.4479 121.654 15.6751 121.72 14.5304 120.135C13.9969 118.72 13.8492 117.983 14.5304 117.017C15.5147 115.169 16.0478 114.253 17.4611 109.669C17.1627 108.824 17.1102 108.324 17.4611 107.331C18.2674 105.395 18.8234 104.62 18.9851 100.762C18.9084 96.7326 18.7175 93.9939 19.3954 92.4116C20.1371 90.3171 20.7879 89.2066 22.3848 87.3457C22.7842 84.7966 22.9922 83.3404 23.9088 81.6675C23.7369 79.1933 23.7186 77.7746 23.9088 75.1542C23.9905 71.5773 24.3073 69.6114 25.0811 66.1357C25.7506 63.1812 26.2005 61.5242 27.6601 58.5647C27.7591 55.7826 27.9543 54.1998 28.598 51.3277C28.5724 49.5665 28.7139 48.2329 29.0083 45.7608C28.6917 45.0349 28.5122 44.5267 28.1877 43.367C26.8558 41.7678 26.2308 40.687 25.1983 38.6351C25.1983 38.6351 23.9099 42.0359 23.1468 43.367C22.3836 44.6981 22.2074 45.408 22.1503 46.4845C21.3995 48.7884 20.8053 49.9558 19.454 51.8288C17.7239 54.8367 16.3274 57.6247 16.875 58.2307C17.0844 58.8925 17.2934 59.453 17.6956 60.5132C18.04 61.9915 18.0827 62.8203 17.6956 64.2987C17.8502 65.1938 17.7736 65.508 17.6956 66.1357C17.0352 68.2338 16.7535 68.8896 16.4647 68.8079C15.8832 68.9696 15.5772 69.0048 15.4682 67.8615C15.3435 67.2161 15.3365 66.8474 15.8199 66.1357L15.4682 64.8554C14.789 66.063 14.5625 66.853 14.2959 68.3625C14.4121 71.2625 14.3945 71.7531 14.2959 71.7027C14.0578 72.3432 13.8275 72.4029 13.2995 72.148M12.7719 71.146L12.3616 69.4202V68.3625C13.585 72.5411 13.7842 73.2808 12.7719 71.146Z" stroke="#466DB9" stroke-width="0.5"/>
</g>
<mask id="path-3-inside-1_3_43" fill="white">
<path fill-rule="evenodd" clip-rule="evenodd" d="M37.2647 37.7189C50.9885 35.3784 61.7832 31.6384 61.3754 29.3654C61.2178 28.487 59.41 27.9562 56.4588 27.7706C63.1328 27.7335 67.5249 28.6192 67.8426 30.3899C68.4198 33.6071 55.3278 38.5278 38.6009 41.3804C21.8739 44.2331 7.84614 43.9375 7.26894 40.7203C7.02057 39.3359 9.30308 37.6362 13.317 35.9215C12.1647 36.6225 11.576 37.277 11.6772 37.8411C12.085 40.1141 23.5409 40.0594 37.2647 37.7189Z"/>
</mask>
<path fill-rule="evenodd" clip-rule="evenodd" d="M37.2647 37.7189C50.9885 35.3784 61.7832 31.6384 61.3754 29.3654C61.2178 28.487 59.41 27.9562 56.4588 27.7706C63.1328 27.7335 67.5249 28.6192 67.8426 30.3899C68.4198 33.6071 55.3278 38.5278 38.6009 41.3804C21.8739 44.2331 7.84614 43.9375 7.26894 40.7203C7.02057 39.3359 9.30308 37.6362 13.317 35.9215C12.1647 36.6225 11.576 37.277 11.6772 37.8411C12.085 40.1141 23.5409 40.0594 37.2647 37.7189Z" fill="url(#paint0_linear_3_43)"/>
<path d="M56.4588 27.7706L56.4547 27.4711L56.4424 28.0696L56.4588 27.7706ZM7.26894 40.7203L6.97321 40.7707L7.26894 40.7203ZM13.317 35.9215L13.475 36.1776L13.1968 35.646L13.317 35.9215ZM61.0797 29.4159C61.1074 29.5704 61.0493 29.7883 60.792 30.0833C60.5379 30.3746 60.1255 30.6977 59.5527 31.044C58.4099 31.7349 56.6927 32.4806 54.5187 33.2338C50.1753 34.7387 44.0625 36.2553 37.2117 37.4237L37.3176 38.0142C44.1906 36.8421 50.3371 35.3185 54.72 33.7999C56.9092 33.0415 58.6719 32.2797 59.8673 31.5569C60.4636 31.1964 60.9349 30.8361 61.2467 30.4786C61.5553 30.1249 61.7453 29.7287 61.6711 29.315L61.0797 29.4159ZM56.4424 28.0696C57.9087 28.1618 59.07 28.3389 59.876 28.5937C60.2795 28.7212 60.5774 28.8632 60.7777 29.0116C60.9766 29.159 61.0582 29.2961 61.0797 29.4159L61.6711 29.315C61.6138 28.9955 61.4103 28.7368 61.1336 28.5318C60.8584 28.3279 60.4904 28.1608 60.0534 28.0227C59.1783 27.7461 57.9602 27.565 56.4753 27.4717L56.4424 28.0696ZM56.463 28.0702C59.7906 28.0517 62.5313 28.2637 64.4713 28.6947C65.4426 28.9105 66.1951 29.1774 66.7167 29.4857C67.2409 29.7956 67.4895 30.1206 67.5469 30.4403L68.1383 30.3394C68.0369 29.7738 67.6174 29.3241 67.0201 28.971C66.4203 28.6165 65.598 28.3323 64.5974 28.11C62.5934 27.6647 59.8011 27.4525 56.4547 27.4711L56.463 28.0702ZM67.5469 30.4403C67.599 30.7309 67.5046 31.077 67.1966 31.4884C66.8887 31.8997 66.3889 32.3454 65.6985 32.8154C64.3195 33.7543 62.2397 34.7504 59.6028 35.7415C54.3338 37.7218 46.8985 39.661 38.5479 41.0851L38.6539 41.6757C47.0302 40.2472 54.5044 38.2997 59.8188 36.3023C62.4736 35.3045 64.604 34.2888 66.0401 33.3111C66.7573 32.8228 67.3163 32.334 67.6792 31.8493C68.0421 31.3646 68.2305 30.8532 68.1383 30.3394L67.5469 30.4403ZM38.5479 41.0851C30.1973 42.5093 22.5284 43.146 16.8827 43.0271C14.0573 42.9675 11.7542 42.719 10.1302 42.2922C9.31719 42.0786 8.69182 41.8247 8.25902 41.5398C7.82613 41.2548 7.6168 40.9604 7.56467 40.6699L6.97321 40.7707C7.06538 41.2845 7.42068 41.7031 7.93076 42.0389C8.44092 42.3748 9.13685 42.6496 9.98148 42.8715C11.6727 43.3159 14.0303 43.5661 16.8748 43.6261C22.569 43.746 30.2775 43.1042 38.6539 41.6757L38.5479 41.0851ZM7.56467 40.6699C7.51972 40.4193 7.58331 40.1289 7.79894 39.7893C8.01576 39.4477 8.37481 39.0761 8.88093 38.6813C9.89269 37.892 11.4397 37.0503 13.4372 36.197L13.1968 35.646C11.1804 36.5074 9.5792 37.3729 8.50831 38.2083C7.9731 38.6258 7.55722 39.0458 7.29049 39.4659C7.02256 39.8879 6.89397 40.3291 6.97321 40.7707L7.56467 40.6699ZM11.9729 37.7907C11.9454 37.6372 12.0023 37.4214 12.2551 37.1294C12.5049 36.841 12.9107 36.5209 13.475 36.1776L13.1591 35.6655C12.5711 36.0231 12.1064 36.3808 11.799 36.7358C11.4946 37.0874 11.3078 37.4808 11.3814 37.8915L11.9729 37.7907ZM37.2117 37.4237C30.3609 38.592 24.083 39.1885 19.4736 39.2105C17.1664 39.2215 15.2915 39.0885 13.976 38.8168C13.3167 38.6806 12.8163 38.5132 12.4759 38.3233C12.1311 38.131 12.0006 37.9452 11.9729 37.7907L11.3814 37.8915C11.4557 38.3052 11.7724 38.615 12.1858 38.8456C12.6036 39.0787 13.1723 39.2616 13.8587 39.4034C15.2347 39.6876 17.158 39.8207 19.4813 39.8096C24.1327 39.7874 30.4447 39.1864 37.3176 38.0142L37.2117 37.4237Z" fill="#474242" fill-opacity="0.69" mask="url(#path-3-inside-1_3_43)"/>
<mask id="path-5-inside-2_3_43" fill="white">
<path fill-rule="evenodd" clip-rule="evenodd" d="M38.9116 92.9651C51.1259 90.882 60.6969 87.3507 60.2891 85.0777C60.1314 84.1988 58.5048 83.6367 55.8626 83.3983C61.8259 83.4823 65.768 84.4451 66.0857 86.2162C66.6629 89.4335 55.0624 94.0997 40.1753 96.6386C25.2881 99.1775 12.7517 98.6276 12.1745 95.4104C11.9261 94.0258 13.9332 92.3729 17.4869 90.7366C16.47 91.4147 15.956 92.0567 16.0572 92.6211C16.465 94.8942 26.6973 95.0482 38.9116 92.9651Z"/>
</mask>
<path fill-rule="evenodd" clip-rule="evenodd" d="M38.9116 92.9651C51.1259 90.882 60.6969 87.3507 60.2891 85.0777C60.1314 84.1988 58.5048 83.6367 55.8626 83.3983C61.8259 83.4823 65.768 84.4451 66.0857 86.2162C66.6629 89.4335 55.0624 94.0997 40.1753 96.6386C25.2881 99.1775 12.7517 98.6276 12.1745 95.4104C11.9261 94.0258 13.9332 92.3729 17.4869 90.7366C16.47 91.4147 15.956 92.0567 16.0572 92.6211C16.465 94.8942 26.6973 95.0482 38.9116 92.9651Z" fill="url(#paint1_linear_3_43)"/>
<path d="M55.8626 83.3983L55.8644 83.0987L55.8379 83.6966L55.8626 83.3983ZM12.1745 95.4104L12.4703 95.3599L12.1745 95.4104ZM17.4869 90.7366L17.6553 90.986L17.3592 90.4645L17.4869 90.7366ZM59.9934 85.1281C60.0237 85.2969 59.9695 85.5166 59.7503 85.7994C59.5317 86.0816 59.1732 86.3933 58.6708 86.7262C57.6681 87.3909 56.153 88.1011 54.2274 88.8116C50.3808 90.2308 44.9533 91.6304 38.8586 92.6698L38.9645 93.2604C45.0842 92.2167 50.5494 90.8091 54.4399 89.3737C56.3828 88.6568 57.9475 87.9278 59.0063 87.226C59.5348 86.8757 59.9525 86.5223 60.2269 86.1681C60.5008 85.8147 60.6565 85.4268 60.5849 85.0273L59.9934 85.1281ZM55.8379 83.6966C57.1484 83.8148 58.185 84.0119 58.905 84.2785C59.6506 84.5546 59.9457 84.8624 59.9934 85.1281L60.5849 85.0273C60.4749 84.4141 59.8778 84.0013 59.1102 83.7171C58.3168 83.4233 57.219 83.2201 55.8873 83.0999L55.8379 83.6966ZM55.8608 83.6978C58.8317 83.7397 61.2798 84.0006 63.0158 84.4639C63.8846 84.6958 64.5579 84.974 65.0265 85.2886C65.4948 85.603 65.7302 85.9332 65.79 86.2666L66.3815 86.1658C66.2824 85.6137 65.9059 85.1594 65.3593 84.7925C64.8131 84.4258 64.0685 84.126 63.1668 83.8853C61.3614 83.4034 58.8568 83.1409 55.8644 83.0987L55.8608 83.6978ZM65.79 86.2666C65.8444 86.5698 65.7616 86.9176 65.4974 87.3174C65.2322 87.7188 64.7972 88.1513 64.1924 88.6051C62.9834 89.5121 61.1495 90.4649 58.8153 91.4039C54.1515 93.2799 47.5513 95.0764 40.1223 96.3434L40.2282 96.9339C47.6864 95.662 54.33 93.8559 59.044 91.9597C61.3986 91.0126 63.2871 90.0369 64.5561 89.0849C65.1902 88.6091 65.6832 88.1293 66 87.6498C66.3179 87.1688 66.4714 86.6669 66.3815 86.1658L65.79 86.2666ZM40.1223 96.3434C32.6932 97.6103 25.8595 98.1049 20.8194 97.8838C18.2969 97.7731 16.2402 97.4838 14.7872 97.0308C14.0603 96.8041 13.5006 96.5413 13.1113 96.2515C12.7236 95.9628 12.5247 95.6631 12.4703 95.3599L11.8788 95.4608C11.9687 95.9619 12.2878 96.3832 12.7543 96.7305C13.2193 97.0767 13.85 97.3648 14.6121 97.6025C16.1372 98.078 18.2533 98.3707 20.7979 98.4823C25.8921 98.7058 32.7701 98.2059 40.2282 96.9339L40.1223 96.3434ZM12.4703 95.3599C12.3762 94.8354 12.701 94.1744 13.6028 93.3949C14.4872 92.6305 15.8486 91.8219 17.6147 91.0088L17.3592 90.4645C15.5715 91.2876 14.1525 92.1236 13.2071 92.9408C12.279 93.7431 11.7245 94.6008 11.8788 95.4608L12.4703 95.3599ZM16.353 92.5707C16.3229 92.4031 16.3761 92.1853 16.5917 91.9051C16.8068 91.6254 17.16 91.3164 17.6553 90.986L17.3185 90.4872C16.7969 90.835 16.3846 91.186 16.1138 91.538C15.8435 91.8894 15.6903 92.2748 15.7615 92.6716L16.353 92.5707ZM38.8586 92.6698C32.7639 93.7092 27.1714 94.189 23.0591 94.1271C21.0004 94.0962 19.328 93.9295 18.1534 93.6362C17.565 93.4893 17.1192 93.3147 16.8153 93.1217C16.5106 92.9282 16.3832 92.7395 16.353 92.5707L15.7615 92.6716C15.8332 93.0711 16.1147 93.3844 16.4954 93.6262C16.8768 93.8686 17.3928 94.0627 18.0118 94.2173C19.2522 94.527 20.9777 94.6949 23.0549 94.7262C27.2142 94.7888 32.8449 94.304 38.9645 93.2604L38.8586 92.6698Z" fill="#474242" fill-opacity="0.69" mask="url(#path-5-inside-2_3_43)"/>
<mask id="path-7-inside-3_3_43" fill="white">
<path fill-rule="evenodd" clip-rule="evenodd" d="M40.2971 55.7365C57.8558 52.742 71.5998 47.5821 70.995 44.2115C70.7613 42.9088 68.4186 42.064 64.6183 41.6907C73.1964 41.8605 78.8737 43.3164 79.3448 45.9421C80.2007 50.7129 63.5456 57.5391 42.1445 61.1889C20.7434 64.8387 2.7005 63.93 1.84458 59.1592C1.47628 57.1064 4.35018 54.673 9.44927 52.2759C7.99287 53.2723 7.2592 54.2191 7.40927 55.0556C8.01399 58.4262 22.7384 58.7311 40.2971 55.7365Z"/>
</mask>
<path fill-rule="evenodd" clip-rule="evenodd" d="M40.2971 55.7365C57.8558 52.742 71.5998 47.5821 70.995 44.2115C70.7613 42.9088 68.4186 42.064 64.6183 41.6907C73.1964 41.8605 78.8737 43.3164 79.3448 45.9421C80.2007 50.7129 63.5456 57.5391 42.1445 61.1889C20.7434 64.8387 2.7005 63.93 1.84458 59.1592C1.47628 57.1064 4.35018 54.673 9.44927 52.2759C7.99287 53.2723 7.2592 54.2191 7.40927 55.0556C8.01399 58.4262 22.7384 58.7311 40.2971 55.7365Z" fill="url(#paint2_linear_3_43)"/>
<path d="M64.6183 41.6907L64.6218 41.3912L64.5912 41.9888L64.6183 41.6907ZM1.84458 59.1592L2.14031 59.1088L1.84458 59.1592ZM9.44927 52.2759L9.62062 52.5233L9.31936 52.0047L9.44927 52.2759ZM70.6993 44.2619C70.7548 44.5714 70.6535 44.938 70.3287 45.3709C70.004 45.8037 69.4777 46.272 68.7522 46.7652C67.3029 47.7503 65.1182 48.7951 62.3495 49.8346C56.8168 51.9117 49.0106 53.9462 40.2441 55.4413L40.3501 56.0318C49.1423 54.5324 56.9874 52.4896 62.5652 50.3955C65.3518 49.3493 67.5871 48.285 69.0934 47.2611C69.8457 46.7497 70.4311 46.2385 70.8109 45.7323C71.1906 45.2262 71.3864 44.6942 71.2908 44.161L70.6993 44.2619ZM64.5912 41.9888C66.4803 42.1744 67.9849 42.4755 69.0377 42.8818C70.1131 43.2969 70.6128 43.7797 70.6993 44.2619L71.2908 44.161C71.1436 43.3406 70.3551 42.7496 69.2506 42.3233C68.1235 41.8883 66.5566 41.5803 64.6454 41.3926L64.5912 41.9888ZM64.6148 41.9902C68.8927 42.0749 72.4276 42.4803 74.9427 43.1838C76.201 43.5358 77.1872 43.9578 77.8811 44.4394C78.5742 44.9204 78.9503 45.442 79.0491 45.9926L79.6406 45.8917C79.5038 45.1294 78.9936 44.4843 78.2217 43.9486C77.4505 43.4134 76.3929 42.9685 75.1007 42.6071C72.5148 41.8837 68.922 41.4763 64.6218 41.3912L64.6148 41.9902ZM79.0491 45.9926C79.1389 46.4931 79.005 47.046 78.6161 47.655C78.226 48.2658 77.5908 48.9138 76.718 49.5863C74.9729 50.9307 72.3303 52.3334 68.9749 53.7087C62.2687 56.4573 52.777 59.0713 42.0915 60.8936L42.1975 61.4842C52.913 59.6568 62.4495 57.0328 69.2072 54.2631C72.5837 52.8792 75.282 51.4527 77.0878 50.0614C77.9904 49.366 78.6832 48.6695 79.1237 47.9796C79.5654 47.2879 79.7647 46.5838 79.6406 45.8917L79.0491 45.9926ZM42.0915 60.8936C31.406 62.716 21.5678 63.3985 14.3028 63.0326C10.6678 62.8495 7.69377 62.4047 5.5842 61.7176C4.5291 61.374 3.70597 60.9747 3.12639 60.5292C2.54859 60.0851 2.23011 59.6093 2.14031 59.1088L1.54885 59.2097C1.67302 59.9018 2.10562 60.4981 2.76196 61.0026C3.41653 61.5057 4.31062 61.9316 5.4018 62.287C7.58478 62.998 10.6195 63.4468 14.2774 63.631C21.5981 63.9997 31.4819 63.3117 42.1975 61.4842L42.0915 60.8936ZM2.14031 59.1088C1.98545 58.2456 2.5034 57.2217 3.79762 56.071C5.07674 54.9337 7.04081 53.7403 9.57919 52.547L9.31936 52.0047C6.75864 53.2086 4.73622 54.4305 3.39569 55.6224C2.07026 56.8009 1.33542 58.02 1.54885 59.2097L2.14031 59.1088ZM7.705 55.0051C7.64987 54.6979 7.74935 54.3344 8.06861 53.9055C8.38789 53.4765 8.90588 53.0123 9.62062 52.5233L9.27793 52.0284C8.53626 52.5359 7.95921 53.0433 7.58507 53.5459C7.21092 54.0486 7.01859 54.5768 7.11354 55.106L7.705 55.0051ZM40.2441 55.4413C31.4776 56.9363 23.4266 57.6062 17.4992 57.4835C14.5331 57.4221 12.1143 57.1624 10.4081 56.7154C9.55394 56.4916 8.89585 56.2253 8.43974 55.9256C7.98352 55.6259 7.76053 55.3146 7.705 55.0051L7.11354 55.106C7.20919 55.6391 7.57863 56.0747 8.11198 56.4251C8.64545 56.7756 9.37409 57.0627 10.2598 57.2947C12.0331 57.7593 14.5063 58.0207 17.4916 58.0825C23.4673 58.2062 31.5578 57.5313 40.3501 56.0318L40.2441 55.4413Z" fill="#474242" fill-opacity="0.69" mask="url(#path-7-inside-3_3_43)"/>
<mask id="path-9-inside-4_3_43" fill="white">
<path fill-rule="evenodd" clip-rule="evenodd" d="M38.5014 75.0966C53.6499 72.5131 65.5996 68.5761 65.1918 66.3031C65.0342 65.4246 63.0539 64.9233 59.809 64.7879C67.1559 64.636 71.9743 65.4489 72.292 67.2196C72.8692 70.4369 58.3695 75.5976 39.906 78.7464C21.4426 81.8952 6.00706 81.8397 5.42986 78.6225C5.18149 77.2381 7.72459 75.494 12.1738 73.7051C10.8928 74.428 10.233 75.0946 10.3342 75.6587C10.742 77.9317 23.3528 77.68 38.5014 75.0966Z"/>
</mask>
<path fill-rule="evenodd" clip-rule="evenodd" d="M38.5014 75.0966C53.6499 72.5131 65.5996 68.5761 65.1918 66.3031C65.0342 65.4246 63.0539 64.9233 59.809 64.7879C67.1559 64.636 71.9743 65.4489 72.292 67.2196C72.8692 70.4369 58.3695 75.5976 39.906 78.7464C21.4426 81.8952 6.00706 81.8397 5.42986 78.6225C5.18149 77.2381 7.72459 75.494 12.1738 73.7051C10.8928 74.428 10.233 75.0946 10.3342 75.6587C10.742 77.9317 23.3528 77.68 38.5014 75.0966Z" fill="url(#paint3_linear_3_43)"/>
<path d="M59.809 64.7879L59.8003 64.4884L59.7988 65.0872L59.809 64.7879ZM5.42986 78.6225L5.13413 78.6729L5.42986 78.6225ZM12.1738 73.7051L12.3234 73.9661L12.0595 73.4271L12.1738 73.7051ZM64.8961 66.3535C64.9215 66.4953 64.8606 66.7124 64.5656 67.0194C64.2776 67.3192 63.8139 67.6528 63.1748 68.0113C61.8998 68.7266 59.9921 69.5055 57.5839 70.2989C52.7719 71.8843 46.0126 73.5112 38.4484 74.8013L38.5543 75.3919C46.1386 74.0984 52.9284 72.4652 57.7765 70.8679C60.1983 70.07 62.1483 69.277 63.4726 68.5341C64.1331 68.1635 64.6545 67.7964 65.0011 67.4357C65.3407 67.0823 65.564 66.6792 65.4875 66.2527L64.8961 66.3535ZM59.7988 65.0872C61.4131 65.1545 62.6929 65.3125 63.5807 65.5557C64.0256 65.6775 64.3544 65.8161 64.5748 65.9633C64.795 66.1104 64.8765 66.2445 64.8961 66.3535L65.4875 66.2527C65.4283 65.9225 65.2031 65.6645 64.9064 65.4663C64.6097 65.2682 64.2111 65.1083 63.7355 64.978C62.7826 64.717 61.4498 64.5566 59.8191 64.4886L59.7988 65.0872ZM59.8176 65.0873C63.4827 65.0116 66.5003 65.1772 68.6332 65.5772C69.7014 65.7775 70.5292 66.0334 71.1017 66.3358C71.6804 66.6415 71.9411 66.9628 71.9962 67.2701L72.5877 67.1692C72.484 66.5911 72.0232 66.1468 71.3796 65.8068C70.7297 65.4635 69.8341 65.1936 68.7396 64.9884C66.5472 64.5772 63.4821 64.4122 59.8003 64.4884L59.8176 65.0873ZM71.9962 67.2701C72.0463 67.549 71.9419 67.8945 71.5912 68.3175C71.2424 68.7382 70.6808 69.1965 69.9098 69.6814C68.3702 70.6498 66.0585 71.6863 63.1362 72.7264C57.2962 74.805 49.0731 76.8787 39.8531 78.4511L39.959 79.0417C49.2024 77.4653 57.4609 75.3842 63.3423 73.2909C66.2807 72.2451 68.6396 71.1913 70.2334 70.1889C71.029 69.6884 71.6498 69.191 72.0556 68.7014C72.4595 68.2141 72.682 67.6946 72.5877 67.1692L71.9962 67.2701ZM39.8531 78.4511C30.633 80.0235 22.1762 80.7945 15.9592 80.7721C12.8483 80.761 10.313 80.5511 8.52766 80.1497C7.63359 79.9487 6.94581 79.7036 6.47127 79.4233C5.99414 79.1414 5.77562 78.8509 5.72559 78.572L5.13413 78.6729C5.22839 79.1983 5.6185 79.6134 6.1681 79.9381C6.72029 80.2643 7.47735 80.5267 8.40002 80.7341C10.2482 81.1496 12.8339 81.36 15.9619 81.3713C22.223 81.3938 30.7156 80.6181 39.959 79.0417L39.8531 78.4511ZM5.72559 78.572C5.68249 78.3318 5.75328 78.0434 5.99917 77.6956C6.2456 77.347 6.65015 76.9657 7.21699 76.5591C8.34941 75.7468 10.072 74.874 12.2881 73.983L12.0595 73.4271C9.82641 74.325 8.05283 75.2187 6.86349 76.0718C6.26944 76.4979 5.80672 76.924 5.50713 77.3478C5.207 77.7723 5.05304 78.221 5.13413 78.6729L5.72559 78.572ZM10.6299 75.6082C10.6047 75.4676 10.6643 75.2526 10.9542 74.9488C11.2373 74.6519 11.6936 74.3215 12.3234 73.9661L12.0242 73.4441C11.373 73.8116 10.8589 74.1759 10.5172 74.5341C10.1821 74.8853 9.96246 75.2856 10.0384 75.7091L10.6299 75.6082ZM38.4484 74.8013C30.8841 76.0913 23.9597 76.798 18.8816 76.8993C16.3401 76.95 14.2744 76.8488 12.8262 76.5979C12.1001 76.4722 11.5479 76.3119 11.1726 76.1252C10.7882 75.9341 10.6553 75.75 10.6299 75.6082L10.0384 75.7091C10.115 76.1356 10.4654 76.4409 10.9079 76.6609C11.3595 76.8855 11.9777 77.0583 12.728 77.1882C14.2323 77.4488 16.3426 77.5493 18.8984 77.4983C24.0148 77.3962 30.9701 76.6853 38.5543 75.3919L38.4484 74.8013Z" fill="#474242" fill-opacity="0.69" mask="url(#path-9-inside-4_3_43)"/>
<defs>
<filter id="filter0_d_3_43" x="5.53461" y="0.807882" width="57.9322" height="128.802" filterUnits="userSpaceOnUse" color-interpolation-filters="sRGB">
<feFlood flood-opacity="0" result="BackgroundImageFix"/>
<feColorMatrix in="SourceAlpha" type="matrix" values="0 0 0 0 0 0 0 0 0 0 0 0 0 0 0 0 0 0 127 0" result="hardAlpha"/>
<feOffset dy="4"/>
<feGaussianBlur stdDeviation="2"/>
<feComposite in2="hardAlpha" operator="out"/>
<feColorMatrix type="matrix" values="0 0 0 0 0.489247 0 0 0 0 0.646019 0 0 0 0 0.950342 0 0 0 0.52 0"/>
<feBlend mode="normal" in2="BackgroundImageFix" result="effect1_dropShadow_3_43"/>
<feBlend mode="normal" in="SourceGraphic" in2="effect1_dropShadow_3_43" result="shape"/>
</filter>
<linearGradient id="paint0_linear_3_43" x1="5.33958" y1="41.0494" x2="65.8199" y2="30.1987" gradientUnits="userSpaceOnUse">
<stop stop-color="#FFFEFE"/>
<stop offset="0.25" stop-color="#8CAFF3" stop-opacity="0.82"/>
<stop offset="0.839938" stop-color="#666464" stop-opacity="0.53"/>
</linearGradient>
<linearGradient id="paint1_linear_3_43" x1="10.4573" y1="95.7029" x2="64.2854" y2="86.0456" gradientUnits="userSpaceOnUse">
<stop stop-color="#FFFEFE"/>
<stop offset="0.25" stop-color="#8CAFF3" stop-opacity="0.82"/>
<stop offset="0.839938" stop-color="#666464" stop-opacity="0.53"/>
</linearGradient>
<linearGradient id="paint2_linear_3_43" x1="-0.623918" y1="59.5803" x2="76.7569" y2="45.6975" gradientUnits="userSpaceOnUse">
<stop stop-color="#FFFEFE"/>
<stop offset="0.25" stop-color="#8CAFF3" stop-opacity="0.82"/>
<stop offset="0.839938" stop-color="#666464" stop-opacity="0.53"/>
</linearGradient>
<linearGradient id="paint3_linear_3_43" x1="3.3002" y1="78.9858" x2="70.0593" y2="67.0086" gradientUnits="userSpaceOnUse">
<stop stop-color="#FFFEFE"/>
<stop offset="0.25" stop-color="#8CAFF3" stop-opacity="0.82"/>
<stop offset="0.839938" stop-color="#666464" stop-opacity="0.53"/>
</linearGradient>
</defs>
</svg>
