<svg width="446" height="99" viewBox="0 0 446 99" fill="none" xmlns="http://www.w3.org/2000/svg">
<path d="M50.4731 8.70171C50.4731 8.70171 56.6234 8.72884 67.0588 4.80052C77.4943 0.872201 85.1611 10.7865 74.2998 17.7079C63.4384 24.6292 48.898 23.6939 48.898 23.6939" stroke="black" stroke-width="6"/>
<path d="M50.5712 8.70171C50.5712 8.70171 43.4975 8.72884 33.062 4.80052C22.6266 0.872201 14.9598 10.7865 25.8211 17.7079C36.6824 24.6292 51.2229 23.6939 51.2229 23.6939" stroke="black" stroke-width="6"/>
<path d="M16.0283 17.5864C0.670926 32.6684 26.5689 36.1983 35.7415 32.6684C44.9142 29.1385 48.898 30.7184 48.898 30.7184" stroke="black" stroke-width="6"/>
<path d="M84.5216 17.5864C99.879 32.6684 73.9811 36.1983 64.8084 32.6684C55.6357 29.1385 51.652 30.7184 51.652 30.7184" stroke="black" stroke-width="6"/>
<path d="M93.8097 32.6917C98.5781 47.0309 87.6818 50.8322 63.5583 45.2632C58.477 44.4546 55.6283 44.5388 50.5469 45.2632" stroke="black" stroke-width="6"/>
<path d="M6.64945 32.6917C1.88106 47.0309 12.7774 50.8322 36.9009 45.2632C41.9822 44.4546 44.8309 44.5388 49.9123 45.2632" stroke="black" stroke-width="6"/>
<path d="M96.1571 50.0868C101.246 61.5536 89.7403 65.635 74.4729 60.1931C59.2056 54.7512 58.9211 56.0368 49.9123 56.8891" stroke="black" stroke-width="6"/>
<path d="M4.30211 50.0868C-0.786951 61.5536 10.7189 65.635 25.9862 60.1931C41.2536 54.7512 41.5381 56.0368 50.5469 56.8891" stroke="black" stroke-width="6"/>
<path d="M95.8794 66.7817C92.2891 83.3532 80.5584 79.0435 59.4705 69.9873H48.898" stroke="black" stroke-width="6"/>
<path d="M4.24149 66.7817C7.8318 83.3532 19.5625 79.0435 40.6504 69.9873H51.2229" stroke="black" stroke-width="6"/>
<path d="M33.9627 47.2885C38.4438 67.7434 41.3377 87.9386 50.4194 87.9386C59.5011 87.9386 63.1934 66.1899 66.8505 47.2885C70.7653 22.4535 59.4883 13.8225 50.4066 13.8225C41.3249 13.8225 30.9985 22.181 33.9627 47.2885Z" fill="white"/>
<path d="M16.3424 86.9362C21.722 97.55 33.4751 98.0662 40.1734 86.9362C46.8717 75.8062 50.5466 63.8885 50.5466 63.8885C38.0523 40.0367 40.7744 25.4921 50.5469 25.4921" stroke="black" stroke-width="6"/>
<path d="M84.7514 86.9362C79.3718 97.55 67.6187 98.0662 60.9204 86.9362C54.2221 75.8062 50.5473 63.8885 50.5473 63.8885C63.0415 40.0367 60.3194 25.4921 50.5469 25.4921" stroke="black" stroke-width="6"/>
<path d="M155.742 72.1216H154.312L128.792 42.9166V72.1216H123.952V31.8616H125.382L151.067 61.4516V31.8616H155.742V72.1216ZM202.89 72.1216H197.885L191.67 58.6466H175.06L168.9 72.1216H163.675L182.705 30.2666H184.135L202.89 72.1216ZM189.525 53.8616L183.42 40.2766L177.26 53.8616H189.525ZM210.823 31.8616H219.073C223.766 31.8616 226.846 32.0449 228.313 32.4116C229.779 32.7782 231.118 33.4382 232.328 34.3916C233.574 35.3449 234.546 36.5366 235.243 37.9666C235.939 39.3966 236.288 41.0099 236.288 42.8066C236.288 44.6032 235.939 46.2166 235.243 47.6466C234.583 49.0766 233.611 50.2682 232.328 51.2216C231.081 52.1382 229.541 52.7982 227.708 53.2016C225.874 53.5682 222.629 53.7516 217.973 53.7516H215.553V72.1216H210.823V31.8616ZM215.553 49.1866H221.823C225.526 49.2599 228.038 48.6732 229.358 47.4266C230.714 46.1799 231.393 44.6216 231.393 42.7516C231.393 38.5716 228.313 36.4816 222.153 36.4816H215.553V49.1866ZM272.852 72.1216H266.912L252.722 53.7516H251.072V72.1216H246.342V31.8616H254.592C258.992 31.8616 262.017 32.0632 263.667 32.4666C265.317 32.8332 266.747 33.4749 267.957 34.3916C269.167 35.3082 270.12 36.4999 270.817 37.9666C271.513 39.3966 271.862 40.9916 271.862 42.7516C271.862 46.0882 270.725 48.7649 268.452 50.7816C266.178 52.7616 262.897 53.7516 258.607 53.7516L272.852 72.1216ZM251.072 49.1316H257.507C260.733 49.1682 263.117 48.6916 264.657 47.7016C266.197 46.6749 266.967 45.0616 266.967 42.8616C266.967 40.6249 266.215 39.0116 264.712 38.0216C263.208 36.9949 260.862 36.4816 257.672 36.4816H251.072V49.1316ZM317.81 72.1216H312.805L306.59 58.6466H289.98L283.82 72.1216H278.595L297.625 30.2666H299.055L317.81 72.1216ZM304.445 53.8616L298.34 40.2766L292.18 53.8616H304.445ZM325.743 31.8616H333.993C338.686 31.8616 341.766 32.0449 343.233 32.4116C344.699 32.7782 346.038 33.4382 347.248 34.3916C348.494 35.3449 349.466 36.5366 350.163 37.9666C350.859 39.3966 351.208 41.0099 351.208 42.8066C351.208 44.6032 350.859 46.2166 350.163 47.6466C349.503 49.0766 348.531 50.2682 347.248 51.2216C346.001 52.1382 344.461 52.7982 342.628 53.2016C340.794 53.5682 337.549 53.7516 332.893 53.7516H330.473V72.1216H325.743V31.8616ZM330.473 49.1866H336.743C340.446 49.2599 342.958 48.6732 344.278 47.4266C345.634 46.1799 346.313 44.6216 346.313 42.7516C346.313 38.5716 343.233 36.4816 337.073 36.4816H330.473V49.1866ZM396.572 72.1216H391.567L385.352 58.6466H368.742L362.582 72.1216H357.357L376.387 30.2666H377.817L396.572 72.1216ZM383.207 53.8616L377.102 40.2766L370.942 53.8616H383.207ZM423.039 36.4816H414.239V72.1216H409.454V36.4816H400.599V31.8616H423.039V36.4816Z" fill="black"/>
</svg>
