<svg width="349" height="61" viewBox="0 0 349 61" fill="none" xmlns="http://www.w3.org/2000/svg">
<path d="M37.3095 44.1817V4.69169H38.1895L64.4245 34.9417V4.69169H68.3295V44.1817H67.4495L41.3795 14.3167V44.1817H37.3095ZM94.1374 3.09669L112.562 44.1817H108.327L102.112 30.7067H85.0624L78.9024 44.1817H74.5024L93.1474 3.09669H94.1374ZM93.6424 11.8417L86.8774 26.6917H100.352L93.6424 11.8417ZM118.68 4.69169H126.545C131.202 4.69169 134.245 4.87502 135.675 5.24169C137.105 5.60836 138.407 6.25002 139.58 7.16669C140.79 8.08336 141.725 9.23836 142.385 10.6317C143.045 11.9884 143.375 13.51 143.375 15.1967C143.375 17.91 142.642 20.1284 141.175 21.8517C139.709 23.575 137.857 24.675 135.62 25.1517C133.42 25.5917 130.029 25.8117 125.445 25.8117H122.64V44.1817H118.68V4.69169ZM122.64 8.54169V22.0167H129.295C133.292 22.09 135.95 21.4484 137.27 20.0917C138.59 18.6984 139.25 17.0667 139.25 15.1967C139.25 10.76 136.042 8.54169 129.625 8.54169H122.64ZM151.449 4.69169H159.314C163.714 4.69169 166.721 4.89335 168.334 5.29669C169.947 5.66335 171.322 6.28669 172.459 7.16669C173.632 8.04669 174.549 9.18335 175.209 10.5767C175.869 11.97 176.199 13.51 176.199 15.1967C176.199 18.57 175.007 21.2284 172.624 23.1717C170.241 25.0784 166.867 25.9584 162.504 25.8117L176.749 44.1817H171.854L157.664 25.8117H155.409V44.1817H151.449V4.69169ZM155.409 8.54169V21.9617H162.229C165.602 21.9984 168.077 21.485 169.654 20.4217C171.267 19.3217 172.074 17.5984 172.074 15.2517C172.074 12.905 171.286 11.2 169.709 10.1367C168.132 9.07336 165.694 8.54169 162.394 8.54169H155.409ZM200.807 3.09669L219.232 44.1817H214.997L208.782 30.7067H191.732L185.572 44.1817H181.172L199.817 3.09669H200.807ZM200.312 11.8417L193.547 26.6917H207.022L200.312 11.8417ZM225.35 4.69169H233.215C237.872 4.69169 240.915 4.87502 242.345 5.24169C243.775 5.60836 245.077 6.25002 246.25 7.16669C247.46 8.08336 248.395 9.23836 249.055 10.6317C249.715 11.9884 250.045 13.51 250.045 15.1967C250.045 17.91 249.312 20.1284 247.845 21.8517C246.379 23.575 244.527 24.675 242.29 25.1517C240.09 25.5917 236.699 25.8117 232.115 25.8117H229.31V44.1817H225.35V4.69169ZM229.31 8.54169V22.0167H235.965C239.962 22.09 242.62 21.4484 243.94 20.0917C245.26 18.6984 245.92 17.0667 245.92 15.1967C245.92 10.76 242.712 8.54169 236.295 8.54169H229.31ZM274.069 3.09669L292.494 44.1817H288.259L282.044 30.7067H264.994L258.834 44.1817H254.434L273.079 3.09669H274.069ZM273.574 11.8417L266.809 26.6917H280.284L273.574 11.8417ZM294.707 8.54169V4.69169H316.377V8.54169H307.577V44.1817H303.562V8.54169H294.707Z" fill="black"/>
</svg>
